<svg width="158" height="26" viewBox="0 0 158 26" fill="none" xmlns="http://www.w3.org/2000/svg">
<path fill-rule="evenodd" clip-rule="evenodd" d="M7.47226 3.34971C7.37797 3.93012 8.79037 4.38615 9.64312 4.60482L9.69986 4.42111C8.78016 4.0927 8.48258 3.78949 8.51115 3.61309C8.59075 3.13917 10.6212 2.82295 13.4064 3.12738C14.344 3.23103 15.2482 3.39279 16.0173 3.59724L16.0724 3.4119C15.1756 3.11844 13.9775 2.88026 12.6965 2.74004C10.2579 2.47097 7.5984 2.59453 7.47226 3.34971ZM8.32052 3.58098H8.32175H8.32052Z" fill="#065928"/>
<path fill-rule="evenodd" clip-rule="evenodd" d="M3.01554 6.22916C2.94492 6.72137 3.42987 7.25829 4.41487 7.78179L4.52386 7.62246C4.22097 7.36721 4.07973 7.12944 4.10463 6.91402C4.21526 5.92188 7.78953 5.20897 12.9309 5.73289C16.8644 6.1308 20.2215 7.12944 21.0914 8.1606L21.2473 8.05005C21.2453 8.0472 21.2408 8.04151 21.2396 8.03867C21.2388 8.03867 21.2388 8.03623 21.2363 8.03623C20.4885 6.83802 16.9138 5.61095 12.5309 5.04843C7.38132 4.38835 3.20413 4.90617 3.01554 6.22916Z" fill="#065928"/>
<path fill-rule="evenodd" clip-rule="evenodd" d="M0.636246 9.98772C0.561136 10.5271 0.995061 11.0928 1.92782 11.6692L2.05354 11.5249C1.86005 11.2884 1.7727 11.0656 1.79433 10.8656C1.9519 9.42966 6.86713 8.70944 12.5265 9.28822C17.3789 9.78937 21.4602 11.0668 22.4574 12.3996L22.6215 12.3C22.6187 12.2947 22.6154 12.2902 22.6142 12.2858V12.2833C22.6121 12.2833 22.6121 12.2821 22.6121 12.2821C21.8431 10.788 17.4299 9.20286 12.0946 8.50906C5.89845 7.69982 0.864842 8.35217 0.636246 9.98772Z" fill="#065928"/>
<path fill-rule="evenodd" clip-rule="evenodd" d="M0.00848359 14.0838C-0.0764237 14.6658 0.47629 15.2751 1.65397 15.9002L1.765 15.7438C1.46619 15.4682 1.31679 15.204 1.31679 14.9605C1.31679 14.9353 1.31924 14.913 1.32087 14.8902C1.48905 13.4376 6.67534 12.699 12.6429 13.2734C17.0618 13.7005 20.9704 14.7402 22.5942 15.9197L22.7155 15.7653C22.7114 15.7653 22.7085 15.7624 22.7085 15.7608C21.1186 14.4545 16.9626 13.225 12.1155 12.632C5.56787 11.8309 0.248102 12.4718 0.00848359 14.0838Z" fill="#065928"/>
<path fill-rule="evenodd" clip-rule="evenodd" d="M1.6832 17.4488C1.41133 17.6578 1.25458 17.8907 1.21907 18.1496C1.13416 18.784 1.80648 19.4778 3.15969 20.1546L3.26541 19.994C2.85721 19.6624 2.65269 19.3388 2.65269 19.0381C2.65269 19.012 2.6531 18.9917 2.65596 18.9673C2.80618 17.5679 7.36137 16.8554 12.6007 17.411C16.453 17.8191 19.8766 18.8137 21.3172 19.9396L21.4425 19.792C21.4425 19.7888 21.438 19.7888 21.438 19.7875C21.4368 19.7875 21.4368 19.7855 21.4368 19.7855C19.9962 18.5255 16.3024 17.3411 12.0137 16.7676C7.29769 16.1324 3.04906 16.4112 1.6832 17.4488Z" fill="#065928"/>
<path fill-rule="evenodd" clip-rule="evenodd" d="M3.72247 21.5904C3.63022 22.2785 4.68054 22.8915 5.57982 23.2877L5.67289 23.1199C5.21978 22.8065 4.99731 22.4996 5.02547 22.2285C5.04139 22.0753 5.13487 21.9278 5.30509 21.7916C6.24152 21.0372 9.46555 20.6227 12.6994 20.9649C15.5315 21.2624 18.0575 21.9928 19.138 22.8203L19.2605 22.6703C19.2597 22.6703 19.2581 22.6703 19.2564 22.6683C19.2564 22.6683 19.256 22.6683 19.256 22.6659C18.1543 21.7351 15.378 20.8535 12.1761 20.4223C7.76985 19.8309 3.88126 20.4158 3.72247 21.5904Z" fill="#065928"/>
<path fill-rule="evenodd" clip-rule="evenodd" d="M9.67525 25.4096H9.67076C8.79679 25.047 8.52492 24.7353 8.56248 24.5625C8.66371 24.0923 10.7072 23.8769 13.4728 24.3187C14.4064 24.4662 15.3 24.6739 16.0596 24.9178L16.1233 24.7353C15.242 24.3971 14.0553 24.0992 12.7846 23.8964C10.3606 23.5058 7.69953 23.5001 7.53502 24.2484C7.41174 24.8235 8.8021 25.3462 9.64219 25.6059H9.6479" fill="#065928"/>
<path fill-rule="evenodd" clip-rule="evenodd" d="M35.8701 20.4122C35.1345 20.6946 33.8886 20.9958 32.6779 20.9958C28.2774 20.9958 24.6709 18.3633 24.6709 14.0565C24.6709 10.0701 27.9557 7.37939 32.4522 7.37939C33.322 7.37939 34.8867 7.62611 35.8338 8.04109L34.8487 10.3709C34.2087 10.1835 33.0379 10.127 32.6595 10.127C30.7524 10.127 28.8248 11.3492 28.8248 14.2061C28.8248 17.0094 30.7695 18.2503 32.8485 18.2503C33.698 18.2503 34.4916 18.0983 35.0961 17.9503L35.8701 20.4122Z" fill="#065928"/>
<path fill-rule="evenodd" clip-rule="evenodd" d="M45.5144 10.0692H40.6682V12.6656H44.6131V15.1279H40.6682V18.3067H45.5144V20.7698H36.6816V7.60571H45.5144V10.0692Z" fill="#065928"/>
<path fill-rule="evenodd" clip-rule="evenodd" d="M51.3768 7.60547C56.6635 7.60547 58.7013 10.6327 58.7013 13.8115C58.7013 18.6251 55.1903 20.7687 51.2254 20.7687H46.2383V7.60547H51.3768ZM50.2228 18.3064H51.2433C53.5285 18.3064 54.6045 16.4823 54.6045 13.8294C54.6045 11.4432 53.1145 10.069 51.3768 10.069H50.2228V18.3064Z" fill="#065928"/>
<path fill-rule="evenodd" clip-rule="evenodd" d="M59.665 20.769H63.6487V7.60571H59.665V20.769Z" fill="#065928"/>
<path fill-rule="evenodd" clip-rule="evenodd" d="M75.8132 20.4122C75.0776 20.6946 73.8301 20.9958 72.6222 20.9958C68.2201 20.9958 64.6152 18.3633 64.6152 14.0565C64.6152 10.0701 67.9013 7.37939 72.3957 7.37939C73.2639 7.37939 74.8323 7.62611 75.7773 8.04109L74.7935 10.3709C74.151 10.1835 72.9806 10.127 72.6022 10.127C70.6955 10.127 68.7675 11.3492 68.7675 14.2061C68.7675 17.0094 70.7139 18.2503 72.792 18.2503C73.6428 18.2503 74.4351 18.0983 75.0396 17.9503L75.8132 20.4122Z" fill="#065928"/>
<path fill-rule="evenodd" clip-rule="evenodd" d="M25.9971 23.2888H26.3543L27.2045 25.3268L28.0585 23.2888H28.3884V25.606H28.1585V23.5172H28.1516L27.305 25.606H27.1078L26.2338 23.5172H26.2273V25.606H25.9971V23.2888Z" fill="#065928"/>
<path fill-rule="evenodd" clip-rule="evenodd" d="M29.6689 23.2888H30.8099V23.488H29.8992V24.3143H30.7634V24.5143H29.8992V25.4076H30.8495V25.606H29.6689V23.2888Z" fill="#065928"/>
<path fill-rule="evenodd" clip-rule="evenodd" d="M32.0244 23.2888H32.602C33.4352 23.2888 33.7658 23.7672 33.7658 24.4435C33.7658 25.2837 33.2017 25.606 32.4314 25.606H32.0244V23.2888ZM32.2546 25.4076H32.4449C33.1053 25.4076 33.5356 25.141 33.5356 24.4301C33.5356 23.7237 33.1119 23.488 32.5914 23.488H32.2546V25.4076Z" fill="#065928"/>
<path fill-rule="evenodd" clip-rule="evenodd" d="M34.9463 25.6057H35.1765V23.2886H34.9463V25.6057Z" fill="#065928"/>
<path fill-rule="evenodd" clip-rule="evenodd" d="M38.0206 23.5467C37.8741 23.4707 37.6639 23.4467 37.5002 23.4467C36.8964 23.4467 36.5564 23.8723 36.5564 24.447C36.5564 25.0323 36.8862 25.4469 37.5002 25.4469C37.6541 25.4469 37.8872 25.4265 38.0206 25.3473L38.0341 25.5468C37.9072 25.6228 37.6471 25.6464 37.5002 25.6464C36.7666 25.6464 36.3262 25.1644 36.3262 24.447C36.3262 23.743 36.7801 23.2488 37.5002 23.2488C37.6373 23.2488 37.9137 23.2715 38.0341 23.3349L38.0206 23.5467Z" fill="#065928"/>
<path fill-rule="evenodd" clip-rule="evenodd" d="M39.3262 25.6057H39.5564V23.2886H39.3262V25.6057Z" fill="#065928"/>
<path fill-rule="evenodd" clip-rule="evenodd" d="M40.7725 23.2888H41.0627L42.2473 25.3268H42.2538V23.2888H42.4837V25.606H42.1734L41.0096 23.6071H41.0031V25.606H40.7725V23.2888Z" fill="#065928"/>
<path fill-rule="evenodd" clip-rule="evenodd" d="M44.4452 23.2888H44.7052L45.629 25.606H45.389L45.1387 24.9861H43.9651L43.7145 25.606H43.4912L44.4452 23.2888ZM44.5587 23.5071L44.0517 24.7862H45.0624L44.5587 23.5071Z" fill="#065928"/>
<path fill-rule="evenodd" clip-rule="evenodd" d="M48.2812 23.2888H48.858C49.692 23.2888 50.0219 23.7672 50.0219 24.4435C50.0219 25.2837 49.4585 25.606 48.6882 25.606H48.2812V23.2888ZM48.5115 25.4076H48.7017C49.3622 25.4076 49.7916 25.141 49.7916 24.4301C49.7916 23.7237 49.3687 23.488 48.8483 23.488H48.5115V25.4076Z" fill="#065928"/>
<path fill-rule="evenodd" clip-rule="evenodd" d="M51.2031 25.6057H51.433V23.2886H51.2031V25.6057Z" fill="#065928"/>
<path fill-rule="evenodd" clip-rule="evenodd" d="M53.3901 23.2888H53.6509L54.5743 25.606H54.3339L54.0845 24.9861H52.9105L52.6602 25.606H52.4365L53.3901 23.2888ZM53.504 23.5071L52.997 24.7862H54.0077L53.504 23.5071Z" fill="#065928"/>
<path fill-rule="evenodd" clip-rule="evenodd" d="M57.2056 24.5503H56.6651V24.3507H57.4363V25.5038C57.1995 25.6059 56.9684 25.6469 56.7117 25.6469C55.9777 25.6469 55.5381 25.1645 55.5381 24.4471C55.5381 23.7431 55.9916 23.2493 56.7117 23.2493C56.8888 23.2493 57.1795 23.2785 57.3362 23.3578L57.3093 23.5708C57.1293 23.4708 56.915 23.4472 56.7117 23.4472C56.1084 23.4472 55.7683 23.8724 55.7683 24.4471C55.7683 25.0324 56.0986 25.4469 56.7117 25.4469C56.8554 25.4469 57.0958 25.4303 57.2056 25.3644V24.5503Z" fill="#065928"/>
<path fill-rule="evenodd" clip-rule="evenodd" d="M58.6973 23.2888H58.9871L60.1717 25.3268H60.1778V23.2888H60.4085V25.606H60.0982L58.9344 23.6071H58.9279V25.606H58.6973V23.2888Z" fill="#065928"/>
<path fill-rule="evenodd" clip-rule="evenodd" d="M62.577 23.2491C63.2771 23.2491 63.6069 23.8201 63.6 24.4473C63.5939 25.1578 63.2469 25.6467 62.577 25.6467C61.9059 25.6467 61.5598 25.1578 61.5528 24.4473C61.5463 23.8201 61.8757 23.2491 62.577 23.2491ZM61.7831 24.4473C61.7831 24.9395 62.0296 25.4472 62.577 25.4472C63.124 25.4472 63.3706 24.9395 63.3706 24.4473C63.3706 23.9563 63.124 23.447 62.577 23.447C62.0296 23.447 61.7831 23.9563 61.7831 24.4473ZM62.6934 22.717H62.9571L62.5366 23.1958H62.3835L62.6934 22.717Z" fill="#065928"/>
<path fill-rule="evenodd" clip-rule="evenodd" d="M64.7105 25.3109C64.8472 25.3971 65.008 25.4471 65.224 25.4471C65.511 25.4471 65.7477 25.3008 65.7477 24.9724C65.7477 24.5175 64.6807 24.4606 64.6807 23.853C64.6807 23.4811 65.008 23.249 65.4175 23.249C65.5314 23.249 65.7151 23.2649 65.8743 23.325L65.8379 23.5344C65.7347 23.4774 65.5714 23.447 65.4142 23.447C65.1742 23.447 64.9109 23.547 64.9109 23.8465C64.9109 24.3111 65.9779 24.3143 65.9779 24.9927C65.9779 25.4605 65.5746 25.6467 65.2134 25.6467C64.9872 25.6467 64.8109 25.6003 64.6872 25.5467L64.7105 25.3109Z" fill="#065928"/>
<path fill-rule="evenodd" clip-rule="evenodd" d="M67.5821 23.4877H66.8955V23.2886H68.4998V23.4877H67.8115V25.6057H67.5821V23.4877Z" fill="#065928"/>
<path fill-rule="evenodd" clip-rule="evenodd" d="M69.4932 25.6057H69.7238V23.2886H69.4932V25.6057Z" fill="#065928"/>
<path fill-rule="evenodd" clip-rule="evenodd" d="M72.5685 23.5467C72.422 23.4707 72.2117 23.4467 72.0476 23.4467C71.4443 23.4467 71.1051 23.8723 71.1051 24.447C71.1051 25.0323 71.4341 25.4469 72.0476 25.4469C72.2015 25.4469 72.435 25.4265 72.5685 25.3473L72.582 25.5468C72.4558 25.6228 72.1946 25.6464 72.0476 25.6464C71.3145 25.6464 70.874 25.1644 70.874 24.447C70.874 23.743 71.3284 23.2488 72.0476 23.2488C72.1852 23.2488 72.462 23.2715 72.582 23.3349L72.5685 23.5467Z" fill="#065928"/>
<path fill-rule="evenodd" clip-rule="evenodd" d="M74.6128 23.2888H74.8732L75.797 25.606H75.5569L75.3067 24.9861H74.1323L73.8825 25.606H73.6592L74.6128 23.2888ZM74.7266 23.5071L74.2197 24.7862H75.2304L74.7266 23.5071Z" fill="#065928"/>
<path fill-rule="evenodd" clip-rule="evenodd" d="M150.883 8.22769H153.207C154.62 8.22769 155.656 8.49389 156.32 9.02949C156.985 9.5651 157.315 10.3961 157.315 11.5287C157.315 12.0993 157.204 12.588 156.982 12.9948C156.756 13.4011 156.423 13.7325 155.978 13.9894C156.651 14.2705 157.157 14.6626 157.494 15.1689C157.83 15.6749 158 16.2924 158 17.024C158 18.2942 157.649 19.2247 156.949 19.8189C156.25 20.4126 155.147 20.7114 153.643 20.7114H150.883V8.22769ZM152.057 9.41882V13.6208H152.794C154.005 13.6208 154.854 13.4542 155.337 13.1206C155.82 12.7838 156.063 12.2367 156.063 11.4759C156.063 10.7619 155.829 10.2409 155.36 9.91298C154.889 9.5826 154.14 9.41882 153.113 9.41882H152.057ZM152.057 14.8119V19.5203H153.78C154.793 19.5203 155.539 19.33 156.022 18.9469C156.505 18.5634 156.748 17.9718 156.748 17.1793C156.748 16.3831 156.502 15.7924 156.01 15.3998C155.518 15.0081 154.775 14.8119 153.78 14.8119H152.057ZM147.682 15.6694L145.315 9.40132L142.982 15.6694H147.682ZM141.062 20.7114H139.769L144.612 8.22769H146.087L150.915 20.7114H149.604L148.112 16.793H142.555L141.062 20.7114ZM140.717 20.7114H135.093V8.22769H136.328V19.503H140.717V20.7114ZM132.509 20.7114H133.735V8.22769H132.509V20.7114ZM121.782 8.22769H125.331C126.308 8.22769 127.131 8.32427 127.795 8.52024C128.462 8.7136 129.05 9.02366 129.557 9.45383C130.273 10.0538 130.827 10.7882 131.222 11.6572C131.617 12.5262 131.813 13.4542 131.813 14.4429C131.813 15.5465 131.596 16.5501 131.16 17.4576C130.727 18.3644 130.112 19.1016 129.317 19.6722C128.793 20.044 128.222 20.3104 127.611 20.4712C126.999 20.632 126.057 20.7114 124.781 20.7114H121.782V8.22769ZM122.99 9.41882V19.5378H125.536C127.125 19.5378 128.348 19.0929 129.205 18.2006C130.063 17.3081 130.493 16.0439 130.493 14.4111C130.493 13.5918 130.347 12.8365 130.057 12.146C129.764 11.4554 129.346 10.8729 128.804 10.4049C128.398 10.0508 127.944 9.79628 127.441 9.64699C126.937 9.49468 126.206 9.41882 125.246 9.41882H122.99ZM115.168 13.8256H120.415V15.0604H115.168V19.503H120.415V20.7114H113.933V8.22769H120.415V9.45383H115.168V13.8256ZM111.648 11.4582C111.089 10.683 110.463 10.1094 109.769 9.74357C109.079 9.37778 108.288 9.19649 107.405 9.19649C106.015 9.19649 104.827 9.71138 103.841 10.7383C102.854 11.7687 102.363 12.9916 102.363 14.4111C102.363 15.9181 102.854 17.191 103.835 18.227C104.815 19.2597 106.003 19.7776 107.405 19.7776C108.268 19.7776 109.049 19.5964 109.746 19.2364C110.442 18.876 111.048 18.3382 111.563 17.6242H113.02C112.45 18.6863 111.683 19.5084 110.723 20.0907C109.763 20.67 108.686 20.9601 107.49 20.9601C105.655 20.9601 104.124 20.3342 102.898 19.0817C101.672 17.8316 101.061 16.2664 101.061 14.3934C101.061 13.5182 101.227 12.6902 101.558 11.9061C101.889 11.1218 102.374 10.4164 103.015 9.78723C103.609 9.19327 104.276 8.74278 105.017 8.43835C105.757 8.13132 106.559 7.979 107.422 7.979C108.663 7.979 109.778 8.28041 110.77 8.88603C111.762 9.49186 112.546 10.3494 113.123 11.4582H111.648Z" fill="#005029"/>
<path fill-rule="evenodd" clip-rule="evenodd" d="M156.691 24.7298H155.553V22.2041H155.802V24.4858H156.691V24.7298ZM153.929 23.7101L153.45 22.4415L152.978 23.7101H153.929ZM152.59 24.7298H152.328L153.308 22.2041H153.606L154.583 24.7298H154.318L154.016 23.9373H152.892L152.59 24.7298ZM151.152 24.7298H151.401V22.2041H151.152V24.7298ZM148.609 22.4522V24.7298H148.365V22.2041H149.043C149.192 22.2041 149.312 22.2156 149.403 22.2379C149.494 22.2608 149.576 22.2977 149.65 22.35C149.751 22.4204 149.83 22.5146 149.889 22.6329C149.947 22.7508 149.976 22.8757 149.976 23.0079C149.976 23.2031 149.918 23.3713 149.802 23.5123C149.685 23.6536 149.541 23.7304 149.366 23.7431L149.976 24.7298H149.681L148.932 23.5123H149.171C149.331 23.5123 149.461 23.4657 149.561 23.3717C149.661 23.2781 149.711 23.1576 149.711 23.0105C149.711 22.9218 149.696 22.8409 149.665 22.7677C149.635 22.695 149.589 22.6317 149.529 22.5775C149.479 22.5323 149.419 22.5001 149.349 22.4808C149.28 22.4621 149.155 22.4522 148.975 22.4522H148.609ZM144.694 23.452C144.694 23.2759 144.728 23.1077 144.796 22.9486C144.864 22.7886 144.962 22.646 145.09 22.5198C145.214 22.3983 145.35 22.3075 145.499 22.246C145.647 22.1846 145.808 22.1538 145.981 22.1538C146.158 22.1538 146.322 22.1846 146.473 22.247C146.624 22.3087 146.762 22.4011 146.887 22.5232C147.015 22.6494 147.112 22.7906 147.177 22.9466C147.241 23.1033 147.274 23.2711 147.274 23.452C147.274 23.6307 147.246 23.7954 147.19 23.9451C147.135 24.0948 147.052 24.2308 146.941 24.3534C146.812 24.4948 146.667 24.6011 146.505 24.6725C146.343 24.7443 146.168 24.7805 145.978 24.7805C145.615 24.7805 145.31 24.6532 145.064 24.3982C144.818 24.1427 144.694 23.8272 144.694 23.452ZM144.954 23.4554C144.954 23.7628 145.054 24.021 145.255 24.2292C145.455 24.4371 145.702 24.5413 145.995 24.5413C146.282 24.5413 146.524 24.4359 146.722 24.226C146.919 24.015 147.018 23.7556 147.018 23.4484C147.018 23.161 146.917 22.9144 146.713 22.7065C146.51 22.4985 146.265 22.3949 145.978 22.3949C145.861 22.3949 145.748 22.4148 145.641 22.455C145.532 22.4951 145.433 22.5536 145.341 22.6315C145.221 22.7323 145.126 22.8566 145.057 23.0039C144.989 23.151 144.954 23.3015 144.954 23.4554ZM143.408 24.7298H143.16V22.4522H142.655V22.2041H143.913V22.4522H143.408V24.7298ZM141.372 23.7101L140.893 22.4415L140.421 23.7101H141.372ZM140.032 24.7298H139.77L140.751 22.2041H141.049L142.026 24.7298H141.761L141.459 23.9373H140.334L140.032 24.7298ZM137.547 22.4522V24.7298H137.302V22.2041H137.981C138.13 22.2041 138.25 22.2156 138.341 22.2379C138.431 22.2608 138.514 22.2977 138.588 22.35C138.688 22.4204 138.768 22.5146 138.826 22.6329C138.885 22.7508 138.914 22.8757 138.914 23.0079C138.914 23.2031 138.856 23.3713 138.74 23.5123C138.623 23.6536 138.478 23.7304 138.304 23.7431L138.914 24.7298H138.619L137.87 23.5123H138.109C138.269 23.5123 138.398 23.4657 138.498 23.3717C138.598 23.2781 138.649 23.1576 138.649 23.0105C138.649 22.9218 138.633 22.8409 138.603 22.7677C138.572 22.695 138.527 22.6317 138.466 22.5775C138.417 22.5323 138.357 22.5001 138.287 22.4808C138.217 22.4621 138.092 22.4522 137.913 22.4522H137.547ZM133.632 23.452C133.632 23.2759 133.666 23.1077 133.733 22.9486C133.801 22.7886 133.899 22.646 134.027 22.5198C134.151 22.3983 134.288 22.3075 134.436 22.246C134.585 22.1846 134.746 22.1538 134.919 22.1538C135.096 22.1538 135.26 22.1846 135.411 22.247C135.562 22.3087 135.7 22.4011 135.824 22.5232C135.953 22.6494 136.05 22.7906 136.114 22.9466C136.179 23.1033 136.211 23.2711 136.211 23.452C136.211 23.6307 136.183 23.7954 136.128 23.9451C136.073 24.0948 135.989 24.2308 135.878 24.3534C135.75 24.4948 135.605 24.6011 135.443 24.6725C135.281 24.7443 135.105 24.7805 134.916 24.7805C134.553 24.7805 134.248 24.6532 134.001 24.3982C133.755 24.1427 133.632 23.8272 133.632 23.452ZM133.892 23.4554C133.892 23.7628 133.992 24.021 134.192 24.2292C134.392 24.4371 134.639 24.5413 134.933 24.5413C135.219 24.5413 135.461 24.4359 135.659 24.226C135.857 24.015 135.956 23.7556 135.956 23.4484C135.956 23.161 135.854 22.9144 135.65 22.7065C135.448 22.4985 135.202 22.3949 134.915 22.3949C134.798 22.3949 134.686 22.4148 134.578 22.455C134.47 22.4951 134.37 22.5536 134.279 22.6315C134.158 22.7323 134.064 22.8566 133.995 23.0039C133.926 23.151 133.892 23.3015 133.892 23.4554ZM131.172 22.2041H131.643C131.929 22.2041 132.138 22.258 132.273 22.3665C132.407 22.4749 132.474 22.6427 132.474 22.8719C132.474 22.9874 132.451 23.0864 132.406 23.1685C132.361 23.2512 132.293 23.318 132.204 23.3701C132.34 23.4268 132.442 23.5061 132.51 23.6087C132.578 23.7113 132.613 23.8363 132.613 23.9844C132.613 24.2411 132.541 24.4292 132.4 24.5496C132.259 24.6697 132.035 24.7298 131.731 24.7298H131.172V22.2041ZM131.41 22.4452V23.2954H131.559C131.804 23.2954 131.976 23.2616 132.074 23.1944C132.171 23.1262 132.221 23.0158 132.221 22.8616C132.221 22.717 132.173 22.6118 132.078 22.5454C131.983 22.4786 131.832 22.4452 131.624 22.4452H131.41ZM131.41 23.5365V24.489H131.759C131.964 24.489 132.115 24.4508 132.212 24.3731C132.31 24.2956 132.359 24.1757 132.359 24.0154C132.359 23.8544 132.309 23.7349 132.21 23.6554C132.11 23.5761 131.96 23.5365 131.759 23.5365H131.41ZM129.549 23.7101L129.07 22.4415L128.598 23.7101H129.549ZM128.21 24.7298H127.948L128.928 22.2041H129.227L130.203 24.7298H129.938L129.636 23.9373H128.512L128.21 24.7298ZM127.164 24.7298H126.026V22.2041H126.276V24.4858H127.164V24.7298ZM123.4 23.7101L122.921 22.4415L122.449 23.7101H123.4ZM122.061 24.7298H121.8L122.779 22.2041H123.078L124.055 24.7298H123.789L123.487 23.9373H122.363L122.061 24.7298ZM120.65 24.4284L120.62 22.2041H120.867V24.7298H120.568L119.182 22.5025L119.21 24.7298H118.965V22.2041H119.264L120.65 24.4284ZM117.474 24.7298H117.722V22.2041H117.474V24.7298ZM116.039 22.8578C115.926 22.7009 115.799 22.585 115.659 22.5111C115.519 22.4369 115.359 22.4003 115.181 22.4003C114.899 22.4003 114.659 22.5045 114.459 22.7124C114.26 22.9206 114.16 23.1685 114.16 23.4554C114.16 23.76 114.26 24.0178 114.458 24.2272C114.657 24.4363 114.897 24.5413 115.181 24.5413C115.355 24.5413 115.513 24.5047 115.654 24.4316C115.795 24.3588 115.918 24.25 116.022 24.1059H116.317C116.201 24.3204 116.046 24.487 115.852 24.6045C115.658 24.7216 115.44 24.7805 115.198 24.7805C114.826 24.7805 114.517 24.6536 114.269 24.4003C114.021 24.1475 113.897 23.8306 113.897 23.452C113.897 23.2747 113.931 23.1073 113.998 22.9486C114.065 22.7898 114.163 22.6472 114.292 22.5198C114.412 22.3995 114.548 22.3087 114.698 22.247C114.847 22.1846 115.01 22.1538 115.184 22.1538C115.435 22.1538 115.661 22.2148 115.862 22.3375C116.062 22.46 116.221 22.6337 116.337 22.8578H116.039ZM112.527 24.7298H112.775V22.2041H112.527V24.7298ZM109.381 22.2041H110.099C110.296 22.2041 110.463 22.2238 110.597 22.2631C110.732 22.3025 110.851 22.3653 110.954 22.4522C111.099 22.5735 111.211 22.7226 111.291 22.8983C111.371 23.0743 111.41 23.2616 111.41 23.4616C111.41 23.685 111.366 23.8882 111.278 24.0721C111.191 24.2556 111.066 24.4045 110.905 24.5196C110.799 24.595 110.684 24.6489 110.56 24.6815C110.436 24.7141 110.246 24.7298 109.987 24.7298H109.381V22.2041ZM109.625 22.4452V24.4926H110.14C110.462 24.4926 110.709 24.4029 110.883 24.2222C111.056 24.0417 111.143 23.786 111.143 23.4554C111.143 23.2896 111.114 23.1367 111.055 22.9973C110.996 22.8574 110.911 22.7395 110.802 22.6447C110.719 22.5731 110.627 22.5218 110.526 22.4914C110.424 22.4608 110.276 22.4452 110.082 22.4452H109.625ZM107.067 23.3371H108.128V23.5868H107.067V24.4858H108.128V24.7298H106.817V22.2041H108.128V22.4522H107.067V23.3371ZM103.115 24.7298V22.2041H103.481L104.355 24.4003L105.226 22.2041H105.592V24.7298H105.354V22.4989L104.466 24.7298H104.243L103.354 22.4989V24.7298H103.115Z" fill="#005029"/>
<path fill-rule="evenodd" clip-rule="evenodd" d="M98.1985 21.1488C97.9191 21.5186 97.6014 21.874 97.2458 22.2142C95.5748 23.8093 93.5811 24.6095 91.259 24.6095C90.4117 24.6095 89.6085 24.5021 88.8488 24.2884L98.1985 21.1488ZM99.4784 18.5545C99.2428 19.4336 98.8503 20.2525 98.3004 21.0118L87.4927 23.7709C87.0538 23.5566 86.6315 23.3013 86.2259 23.0045L99.4784 18.5545ZM99.3686 14.2624C99.6187 15.0008 99.7438 15.7392 99.7438 16.4764C99.7438 17.1998 99.6561 17.8891 99.4808 18.5458L85.248 22.1796C84.9901 21.9301 84.7524 21.6728 84.5351 21.4074L99.5812 16.3553L83.8166 20.3806C83.6706 20.1315 83.5398 19.8768 83.4247 19.6158L99.3686 14.2624ZM98.472 12.399C98.8561 13.0147 99.1533 13.6308 99.3633 14.2467L83.0167 18.4205C82.9533 18.1646 82.9028 17.9044 82.8655 17.6392L98.472 12.399ZM97.1654 10.6731C97.6543 11.2226 98.0738 11.7723 98.4235 12.3222L82.7881 16.3141C82.7951 16.0346 82.8201 15.7553 82.8629 15.4755L97.1654 10.6731ZM95.6618 9.01336C95.8736 9.26004 96.0946 9.50953 96.3251 9.76205L96.9408 10.426C96.9686 10.4558 96.9957 10.4856 97.0229 10.5154L83.2426 14.0336C83.3672 13.6996 83.5179 13.366 83.6935 13.0318L95.6618 9.01336ZM94.3113 7.30252C94.6489 7.77435 95.026 8.25824 95.442 8.75441L84.6796 11.5021C84.953 11.1433 85.2561 10.7848 85.5889 10.426L85.8514 10.1429L94.3113 7.30252ZM93.1884 5.51482C93.4352 5.97759 93.726 6.45344 94.0598 6.94257L87.1214 8.71417C87.5697 8.17756 87.9723 7.65483 88.3291 7.14659L93.1884 5.51482ZM92.3489 3.63235C92.5447 4.15125 92.7475 4.6273 92.9572 5.05969L89.0329 6.06169C89.1651 5.83916 89.2876 5.61965 89.4001 5.40315C89.5502 5.11543 89.6968 4.80557 89.8397 4.47479L92.3489 3.63235ZM91.259 0C91.5371 1.1519 91.8367 2.18548 92.1558 3.09976L90.19 3.60176C90.5757 2.56938 90.9322 1.36799 91.259 0Z" fill="#95CCA3"/>
</svg>
